<?xml version="1.0" standalone="no"?>
<!DOCTYPE svg PUBLIC "-//W3C//DTD SVG 20010904//EN"
 "http://www.w3.org/TR/2001/REC-SVG-20010904/DTD/svg10.dtd">
<svg version="1.0" xmlns="http://www.w3.org/2000/svg"
 width="300px" height="300px" viewBox="0 0 512.000000 512.000000"
 preserveAspectRatio="xMidYMid meet">

<g transform="translate(0.000000,512.000000) scale(0.100000,-0.100000)"
fill="#000000" stroke="none">
<path d="M1884 5105 c-109 -19 -252 -68 -348 -118 -89 -48 -239 -158 -270
-200 -40 -54 -20 -133 42 -163 49 -23 89 -8 182 66 88 71 225 142 329 170 40
12 75 19 77 17 2 -1 -32 -26 -75 -54 -153 -102 -305 -266 -405 -438 -91 -159
-149 -346 -166 -538 -5 -56 -12 -103 -17 -104 -63 -22 -108 -84 -97 -137 6
-37 47 -82 79 -88 20 -3 20 -12 23 -546 l2 -542 -28 0 c-44 0 -114 -41 -145
-86 -35 -50 -45 -118 -35 -224 8 -82 27 -137 65 -188 l24 -32 -30 -77 c-65
-158 -91 -377 -91 -747 0 -121 5 -295 11 -386 11 -155 14 -171 50 -265 49
-124 118 -228 183 -274 126 -90 274 -29 388 161 48 80 58 133 33 175 -24 40
-51 55 -98 55 -33 -1 -48 6 -85 38 -52 46 -135 80 -197 80 -54 0 -52 -5 -58
167 l-5 121 58 -87 c125 -187 344 -345 552 -401 l48 -12 -19 -27 c-11 -14 -43
-53 -72 -86 -89 -101 -125 -213 -89 -279 29 -55 38 -56 431 -56 l362 0 38 40
c35 36 38 38 44 19 4 -11 21 -29 38 -40 30 -18 54 -19 385 -19 389 0 396 1
428 62 35 67 -1 165 -105 287 -39 47 -71 88 -71 92 0 4 32 17 72 29 208 63
409 214 529 397 l48 74 -5 -128 c-3 -70 -7 -133 -9 -139 -2 -6 -30 -13 -63
-16 -73 -7 -137 -35 -190 -82 -31 -29 -46 -35 -65 -31 -58 15 -127 -45 -127
-110 0 -41 64 -157 121 -219 124 -136 259 -141 372 -16 51 57 115 176 145 270
27 83 42 306 42 605 0 369 -27 591 -89 745 l-30 73 28 41 c59 85 88 246 61
341 -24 85 -108 155 -189 155 l-21 0 0 540 c0 506 1 541 18 546 41 14 65 30
78 56 31 59 6 127 -57 155 l-37 16 -7 81 c-35 425 -249 786 -607 1022 -29 18
-50 34 -48 34 3 0 39 -9 80 -21 107 -29 243 -99 330 -169 93 -75 133 -89 183
-65 35 16 67 64 67 100 0 47 -67 116 -199 205 -260 175 -621 235 -916 153
-141 -39 -270 -39 -410 1 -84 23 -124 29 -245 32 -96 2 -172 -2 -226 -11z
m842 -290 c170 -27 296 -76 442 -171 255 -166 449 -477 478 -764 8 -81 18 -76
-111 -55 -49 8 -93 15 -97 15 -5 0 -8 11 -8 24 0 40 -48 193 -81 259 -112 221
-314 389 -551 458 -105 30 -297 37 -409 15 -168 -34 -314 -112 -439 -236 -134
-132 -212 -271 -247 -437 -9 -43 -17 -79 -18 -81 -3 -4 -176 -32 -199 -32 -17
0 -18 6 -11 68 18 169 114 394 230 540 245 305 640 459 1021 397z m41 -459
c158 -51 295 -167 372 -315 57 -111 75 -185 74 -316 0 -94 -4 -123 -29 -195
-54 -163 -177 -305 -326 -380 -108 -54 -205 -74 -332 -67 -176 9 -304 66 -432
193 -58 57 -81 90 -117 165 -55 116 -70 176 -70 293 1 304 196 556 495 636
104 28 252 23 365 -14z m-1059 -833 c106 -427 519 -715 951 -663 264 33 491
172 637 392 53 79 107 207 125 297 l13 63 51 -7 c27 -3 77 -11 110 -18 l60
-12 3 -606 2 -607 -82 -53 c-353 -226 -806 -354 -1132 -319 -325 34 -627 141
-898 318 l-88 57 0 602 c0 592 0 602 20 608 26 8 159 33 186 34 18 1 24 -10
42 -86z m2148 -1441 c-21 -40 -81 -98 -248 -239 -81 -68 -152 -132 -158 -142
-5 -11 -14 -48 -19 -83 -5 -35 -19 -106 -31 -158 -31 -136 -31 -223 0 -279 36
-65 79 -83 205 -89 l103 -5 -15 -35 c-21 -51 -84 -140 -135 -191 -113 -114
-255 -178 -431 -196 -56 -6 -72 -11 -97 -37 -31 -31 -34 -42 -30 -122 4 -83
53 -197 113 -263 l20 -23 -186 0 -186 0 -10 38 c-6 20 -26 102 -46 181 -42
167 -46 176 -85 196 -54 28 -125 14 -155 -31 -8 -12 -30 -87 -50 -166 -20 -78
-40 -160 -46 -180 l-10 -38 -179 0 c-99 0 -180 2 -180 5 0 3 15 24 33 48 44
58 77 136 89 213 18 120 -18 168 -138 180 -239 25 -442 164 -552 380 l-21 41
107 5 c116 5 155 18 191 64 47 60 50 157 11 321 -10 44 -22 104 -25 134 -4 30
-11 66 -17 81 -6 17 -75 81 -172 162 -222 184 -256 225 -256 316 0 34 3 40 21
40 12 0 51 -22 88 -48 337 -244 812 -404 1201 -404 382 0 837 150 1183 389 43
30 88 58 100 62 21 8 22 5 25 -45 2 -33 -3 -64 -12 -82z m-2473 -421 l82 -69
23 -113 c13 -63 26 -124 29 -136 l5 -23 -146 0 -146 0 0 39 c0 22 7 93 15 158
14 102 20 137 40 201 3 6 7 12 10 12 4 0 43 -31 88 -69z m2466 11 c15 -54 41
-242 41 -304 l0 -48 -144 0 -143 0 27 135 c15 75 29 137 31 139 48 46 165 134
169 128 4 -4 12 -26 19 -50z m-2519 -1252 c28 -15 64 -70 53 -81 -10 -10 -38
16 -68 64 -18 29 -15 33 15 17z m2479 -12 c-30 -58 -51 -79 -65 -67 -11 9 -10
15 7 38 17 21 53 49 67 51 1 0 -3 -10 -9 -22z"/>
<path d="M2462 3929 c-66 -33 -122 -120 -122 -190 0 -189 219 -292 361 -171
94 81 106 211 27 306 -61 75 -177 99 -266 55z"/>
<path d="M1962 2623 c-65 -32 -80 -117 -30 -171 111 -119 443 -254 628 -254
127 0 339 65 480 148 169 98 207 153 164 235 -15 30 -65 59 -102 59 -11 0 -54
-23 -96 -50 -192 -125 -376 -183 -508 -160 -127 22 -264 78 -359 145 -96 68
-122 75 -177 48z"/>
<path d="M1934 1726 c-32 -32 -34 -38 -34 -99 0 -36 9 -107 19 -159 61 -303
232 -509 476 -573 80 -21 251 -21 330 0 173 46 298 148 388 315 63 117 107
288 107 415 0 69 -2 75 -31 104 -39 40 -73 40 -193 2 -303 -97 -582 -97 -867
0 -116 39 -152 38 -195 -5z"/>
</g>
</svg>
